# xmcd
#
# Track frame offsets: 
#        150
#        23747
#        38778
#        61822
#        80799
#        98733
#        118384
#        139928
#        167130
#        186656
#        201623
#        224142
#        245976
#        262200
#
# Disc length: 3672 seconds
#
# Revision: 0
# Processed by: cddbd v1.4PL0 Copyright (c) Steve Scherf et al.
# Submitted via: ExactAudioCopy v0.90b4
#
DISCID=ec0e560e
DTITLE=Papa George Lightfoot - Goin' Back to the Natchez Trace
DYEAR=1900
DGENRE=
TTITLE0=My Woman Is Tired of Me Lyin'
TTITLE1=New Mean Old Train
TTITLE2=Love My Baby
TTITLE3=Goin' Down That Muddy Road
TTITLE4=Ah Come on Honey
TTITLE5=I Heard Somebody Crying
TTITLE6=Take It Witcha
TTITLE7=Nighttime
TTITLE8=Early in the Morning
TTITLE9=Walkin'
TTITLE10=Goin' Back to Natchez
TTITLE11=Baby Please Don't Go
TTITLE12=Train Tune
TTITLE13=Lightfoot, Papa George-Talkin' About It...
EXTD=
EXTT0=
EXTT1=
EXTT2=
EXTT3=
EXTT4=
EXTT5=
EXTT6=
EXTT7=
EXTT8=
EXTT9=
EXTT10=
EXTT11=
EXTT12=
EXTT13=
PLAYORDER=
